<svg width="166" height="331" viewBox="0 0 166 331" fill="none" xmlns="http://www.w3.org/2000/svg">
<mask id="mask0" mask-type="alpha" maskUnits="userSpaceOnUse" x="0" y="1" width="166" height="329">
<path d="M0.5 1.5H165.5V329.5H0.5V1.5Z" fill="#4A3AFF" stroke="#EFF0F7"/>
</mask>
<g mask="url(#mask0)">
<path opacity="0.1" d="M0.408244 0.813462C22.0763 0.813464 43.5323 5.08132 63.551 13.3733C83.5697 21.6654 101.759 33.8192 117.081 49.1408C132.402 64.4625 144.556 82.652 152.848 102.671C161.14 122.689 165.408 144.145 165.408 165.813C165.408 187.482 161.14 208.937 152.848 228.956C144.556 248.975 132.402 267.164 117.081 282.486C101.759 297.808 83.5697 309.961 63.5509 318.253C43.5322 326.546 22.0763 330.813 0.40817 330.813L0.408229 165.813L0.408244 0.813462Z" fill="white"/>
</g>
</svg>
