<svg width="40" height="40" viewBox="0 0 40 40" fill="none" xmlns="http://www.w3.org/2000/svg">
<g clip-path="url(#clip0_130_1196)">
<path d="M9.99999 31.6669H30V15.2619L20 6.17186L9.99999 15.2619V31.6669ZM31.6667 35.0002H8.33332C7.8913 35.0002 7.46737 34.8246 7.15481 34.512C6.84225 34.1995 6.66666 33.7756 6.66666 33.3335V18.3335H1.66666L18.8783 2.68686C19.1852 2.40766 19.5851 2.25293 20 2.25293C20.4149 2.25293 20.8148 2.40766 21.1217 2.68686L38.3333 18.3335H33.3333V33.3335C33.3333 33.7756 33.1577 34.1995 32.8452 34.512C32.5326 34.8246 32.1087 35.0002 31.6667 35.0002ZM12.5 21.6669H15.8333C15.8333 22.7719 16.2723 23.8317 17.0537 24.6131C17.8351 25.3945 18.8949 25.8335 20 25.8335C21.1051 25.8335 22.1649 25.3945 22.9463 24.6131C23.7277 23.8317 24.1667 22.7719 24.1667 21.6669H27.5C27.5 23.656 26.7098 25.5636 25.3033 26.9702C23.8968 28.3767 21.9891 29.1669 20 29.1669C18.0109 29.1669 16.1032 28.3767 14.6967 26.9702C13.2902 25.5636 12.5 23.656 12.5 21.6669Z" fill="#1B1B1B"/>
</g>
<defs>
<clipPath id="clip0_130_1196">
<rect width="40" height="40" fill="white"/>
</clipPath>
</defs>
</svg>
