<svg width="16" height="16" viewBox="0 0 16 16" fill="none" xmlns="http://www.w3.org/2000/svg">
<g clip-path="url(#clip0_130_1059)">
<path d="M7.99999 13.9333L11.3 10.6333C11.9526 9.98067 12.397 9.14915 12.577 8.24392C12.7571 7.33869 12.6646 6.4004 12.3114 5.54771C11.9582 4.69501 11.36 3.96621 10.5926 3.45345C9.82519 2.94069 8.92295 2.66701 7.99999 2.66701C7.07704 2.66701 6.1748 2.94069 5.40738 3.45345C4.63996 3.96621 4.04183 4.69501 3.6886 5.54771C3.33538 6.4004 3.24294 7.33869 3.42296 8.24392C3.60299 9.14915 4.0474 9.98067 4.69999 10.6333L7.99999 13.9333ZM7.99999 15.8187L3.75733 11.576C2.91822 10.7369 2.34678 9.66779 2.11528 8.5039C1.88377 7.34002 2.0026 6.13362 2.45672 5.03727C2.91085 3.94092 3.67989 3.00385 4.66658 2.34457C5.65327 1.68528 6.81331 1.33339 7.99999 1.33339C9.18668 1.33339 10.3467 1.68528 11.3334 2.34457C12.3201 3.00385 13.0891 3.94092 13.5433 5.03727C13.9974 6.13362 14.1162 7.34002 13.8847 8.5039C13.6532 9.66779 13.0818 10.7369 12.2427 11.576L7.99999 15.8187V15.8187ZM7.99999 8.66667C8.35362 8.66667 8.69275 8.52619 8.9428 8.27615C9.19285 8.0261 9.33333 7.68696 9.33333 7.33334C9.33333 6.97972 9.19285 6.64058 8.9428 6.39053C8.69275 6.14048 8.35362 6 7.99999 6C7.64637 6 7.30723 6.14048 7.05719 6.39053C6.80714 6.64058 6.66666 6.97972 6.66666 7.33334C6.66666 7.68696 6.80714 8.0261 7.05719 8.27615C7.30723 8.52619 7.64637 8.66667 7.99999 8.66667ZM7.99999 10C7.29275 10 6.61447 9.71905 6.11438 9.21896C5.61428 8.71886 5.33333 8.04058 5.33333 7.33334C5.33333 6.62609 5.61428 5.94782 6.11438 5.44772C6.61447 4.94762 7.29275 4.66667 7.99999 4.66667C8.70724 4.66667 9.38552 4.94762 9.88561 5.44772C10.3857 5.94782 10.6667 6.62609 10.6667 7.33334C10.6667 8.04058 10.3857 8.71886 9.88561 9.21896C9.38552 9.71905 8.70724 10 7.99999 10Z" fill="white"/>
</g>
<defs>
<clipPath id="clip0_130_1059">
<rect width="16" height="16" fill="white"/>
</clipPath>
</defs>
</svg>
