<svg viewBox="0 0 24 24" xmlns="http://www.w3.org/2000/svg"><path d="M20 2H4a4 4 0 0 0-4 4v12a4 4 0 0 0 4 4h16a4 4 0 0 0 4-4V6a4 4 0 0 0-4-4Zm2 16a2 2 0 0 1-2 2H4a2 2 0 0 1-2-2V6a2 2 0 0 1 2-2h16a2 2 0 0 1 2 2Z" fill="#ffffff" class="fill-232323"></path><path d="M19.74 7.017a1 1 0 0 0-1.413-.067l-4.977 4.529a2.005 2.005 0 0 1-2.7 0L5.673 6.95a1 1 0 1 0-1.346 1.48l3.957 3.6-3.956 3.59a1 1 0 1 0 1.344 1.48l4.143-3.76a3.937 3.937 0 0 0 4.37 0l4.143 3.76a1 1 0 1 0 1.344-1.48l-3.955-3.591 3.956-3.6a1 1 0 0 0 .067-1.412Z" fill="#ffffff" class="fill-232323"></path></svg>