<svg width="573" height="328" viewBox="0 0 573 328" fill="none" xmlns="http://www.w3.org/2000/svg">
<g clip-path="url(#clip0)">
<mask id="mask0" mask-type="alpha" maskUnits="userSpaceOnUse" x="0" y="0" width="573" height="328">
<path d="M0.5 0.5H572.5V327.5H0.5V0.5Z" fill="#4A3AFF" stroke="#EFF0F7"/>
</mask>
<g mask="url(#mask0)">
<path opacity="0.2" d="M208.381 0.0301833C208.381 11.6345 210.67 23.1252 215.117 33.8462C219.565 44.5672 226.084 54.3086 234.301 62.5141C242.519 70.7196 252.275 77.2285 263.012 81.6693C273.75 86.1101 285.258 88.3958 296.879 88.3957C308.501 88.3957 320.009 86.1101 330.746 81.6693C341.483 77.2285 351.239 70.7196 359.457 62.5141C367.675 54.3086 374.194 44.5672 378.641 33.8462C383.089 23.1252 385.378 11.6345 385.378 0.0301512L296.879 0.0301794L208.381 0.0301833Z" fill="white"/>
<path opacity="0.1" d="M207.585 146.002C207.585 159.611 204.9 173.088 199.684 185.662C194.468 198.235 186.823 209.66 177.185 219.284C167.547 228.907 156.105 236.541 143.512 241.749C130.919 246.958 117.423 249.638 103.792 249.638C90.1622 249.638 76.6654 246.958 64.0728 241.749C51.4801 236.541 40.0381 228.907 30.4001 219.284C20.762 209.66 13.1167 198.235 7.90068 185.662C2.68462 173.088 -5.58153e-05 159.611 -5.15366e-05 146.002L103.792 146.002H207.585Z" fill="white"/>
<rect opacity="0.1" x="385.354" y="87.917" width="177.362" height="177.631" transform="rotate(90 385.354 87.917)" fill="white"/>
<path opacity="0.07" d="M198.605 339.371L298.043 242.8L385.256 153L385.256 339.371L198.605 339.371Z" fill="white"/>
<ellipse opacity="0.07" cx="478.485" cy="256.146" rx="92.8541" ry="92.9938" transform="rotate(90 478.485 256.146)" fill="white"/>
<rect opacity="0.2" x="572" y="-22" width="186.371" height="186.653" transform="rotate(90 572 -22)" fill="white"/>
<path opacity="0.2" d="M550.08 -0.955811L462.335 84.2593L385.377 163.5L385.377 -0.955818L550.08 -0.955811Z" fill="white"/>
</g>
</g>
<defs>
<clipPath id="clip0">
<rect width="573" height="328" fill="white"/>
</clipPath>
</defs>
</svg>
