<svg width="126" height="22" viewBox="0 0 126 22" fill="none" xmlns="http://www.w3.org/2000/svg">
<path d="M11 0L14.3751 6.35462L21.4616 7.60081L16.461 12.7744L17.4656 19.8992L11 16.742L4.53436 19.8992L5.53903 12.7744L0.538379 7.60081L7.62494 6.35462L11 0Z" fill="#EABC63"/>
<path d="M37 6.10352e-05L40.3751 6.35468L47.4616 7.60087L42.461 12.7744L43.4656 19.8992L37 16.7421L30.5344 19.8992L31.539 12.7744L26.5384 7.60087L33.6249 6.35468L37 6.10352e-05Z" fill="#EABC63"/>
<path d="M62.9999 6.10352e-05L66.375 6.35468L73.4615 7.60087L68.4609 12.7744L69.4655 19.8992L62.9999 16.7421L56.5343 19.8992L57.5389 12.7744L52.5383 7.60087L59.6248 6.35468L62.9999 6.10352e-05Z" fill="#EABC63"/>
<path d="M89.0002 6.10352e-05L92.3753 6.35468L99.4618 7.60087L94.4612 12.7744L95.4659 19.8992L89.0002 16.7421L82.5346 19.8992L83.5392 12.7744L78.5386 7.60087L85.6251 6.35468L89.0002 6.10352e-05Z" fill="#EABC63"/>
<path d="M115 6.10352e-05L118.375 6.35468L125.461 7.60087L120.461 12.7744L121.465 19.8992L115 16.7421L108.534 19.8992L109.539 12.7744L104.538 7.60087L111.625 6.35468L115 6.10352e-05Z" fill="#EABC63"/>
</svg>
